<mxfile host="app.diagrams.net" modified="2023-11-21T13:11:46.954Z" agent="Mozilla/5.0 (X11; Linux x86_64; rv:109.0) Gecko/20100101 Firefox/119.0" etag="HWuonBuJh76Qjnjgp3Vn" version="22.1.3" type="github">
  <diagram name="Page-1" id="yC7KV2Ko1jgtMiXsxVH6">
    <mxGraphModel dx="1674" dy="746" grid="0" gridSize="10" guides="1" tooltips="1" connect="1" arrows="1" fold="1" page="0" pageScale="1" pageWidth="850" pageHeight="1100" math="0" shadow="0">
      <root>
        <mxCell id="0" />
        <mxCell id="1" parent="0" />
        <mxCell id="NwfZpaaQpDAw_J0AIX61-1" value="&lt;font style=&quot;font-size: 12px;&quot;&gt;Transazione&lt;/font&gt;" style="rhombus;whiteSpace=wrap;html=1;fontSize=16;" parent="1" vertex="1">
          <mxGeometry x="198" y="400" width="107" height="61" as="geometry" />
        </mxCell>
        <mxCell id="NwfZpaaQpDAw_J0AIX61-10" value="&lt;div&gt;&lt;font style=&quot;font-size: 18px;&quot;&gt;Prodotto&lt;/font&gt;&lt;/div&gt;" style="whiteSpace=wrap;html=1;fontSize=16;" parent="1" vertex="1">
          <mxGeometry x="355" y="400" width="120" height="60" as="geometry" />
        </mxCell>
        <mxCell id="NwfZpaaQpDAw_J0AIX61-28" value="&lt;div&gt;&lt;font style=&quot;font-size: 18px;&quot;&gt;Cliente&lt;/font&gt;&lt;/div&gt;" style="rounded=0;whiteSpace=wrap;html=1;fontSize=16;" parent="1" vertex="1">
          <mxGeometry x="28" y="401" width="120" height="60" as="geometry" />
        </mxCell>
        <mxCell id="BWnH7RUJTYlGTLS44q7B-9" value="(1, N)" style="endArrow=none;html=1;rounded=0;" parent="1" source="NwfZpaaQpDAw_J0AIX61-1" target="NwfZpaaQpDAw_J0AIX61-28" edge="1">
          <mxGeometry width="50" height="50" relative="1" as="geometry">
            <mxPoint x="305" y="210" as="sourcePoint" />
            <mxPoint x="534" y="325.5" as="targetPoint" />
          </mxGeometry>
        </mxCell>
        <mxCell id="BWnH7RUJTYlGTLS44q7B-10" value="(1, 1)" style="endArrow=none;html=1;rounded=0;" parent="1" source="NwfZpaaQpDAw_J0AIX61-1" target="NwfZpaaQpDAw_J0AIX61-10" edge="1">
          <mxGeometry width="50" height="50" relative="1" as="geometry">
            <mxPoint x="425" y="292" as="sourcePoint" />
            <mxPoint x="425" y="254" as="targetPoint" />
          </mxGeometry>
        </mxCell>
        <mxCell id="BWnH7RUJTYlGTLS44q7B-19" value="&lt;font style=&quot;font-size: 18px;&quot;&gt;Fornitore&lt;/font&gt;" style="rounded=0;whiteSpace=wrap;html=1;" parent="1" vertex="1">
          <mxGeometry x="355" y="612" width="120" height="60" as="geometry" />
        </mxCell>
        <mxCell id="BWnH7RUJTYlGTLS44q7B-22" value="Ordine online" style="rhombus;whiteSpace=wrap;html=1;" parent="1" vertex="1">
          <mxGeometry x="371" y="506" width="88" height="60" as="geometry" />
        </mxCell>
        <mxCell id="BWnH7RUJTYlGTLS44q7B-23" value="(1, N)" style="endArrow=none;html=1;rounded=0;" parent="1" source="BWnH7RUJTYlGTLS44q7B-19" target="BWnH7RUJTYlGTLS44q7B-22" edge="1">
          <mxGeometry width="50" height="50" relative="1" as="geometry">
            <mxPoint x="594" y="463" as="sourcePoint" />
            <mxPoint x="644" y="413" as="targetPoint" />
          </mxGeometry>
        </mxCell>
        <mxCell id="BWnH7RUJTYlGTLS44q7B-24" value="(1, 1)" style="endArrow=none;html=1;rounded=0;" parent="1" source="NwfZpaaQpDAw_J0AIX61-10" target="BWnH7RUJTYlGTLS44q7B-22" edge="1">
          <mxGeometry width="50" height="50" relative="1" as="geometry">
            <mxPoint x="115" y="269" as="sourcePoint" />
            <mxPoint x="200" y="318" as="targetPoint" />
          </mxGeometry>
        </mxCell>
        <mxCell id="BWnH7RUJTYlGTLS44q7B-31" value="&lt;font style=&quot;font-size: 18px;&quot;&gt;Livello di Domanda&lt;/font&gt;" style="rounded=0;whiteSpace=wrap;html=1;" parent="1" vertex="1">
          <mxGeometry x="355" y="187" width="120" height="60" as="geometry" />
        </mxCell>
        <mxCell id="BWnH7RUJTYlGTLS44q7B-32" value="(1, 1)" style="endArrow=none;html=1;rounded=0;" parent="1" source="BWnH7RUJTYlGTLS44q7B-33" target="NwfZpaaQpDAw_J0AIX61-10" edge="1">
          <mxGeometry width="50" height="50" relative="1" as="geometry">
            <mxPoint x="586" y="268" as="sourcePoint" />
            <mxPoint x="489" y="309.0000000000002" as="targetPoint" />
          </mxGeometry>
        </mxCell>
        <mxCell id="BWnH7RUJTYlGTLS44q7B-33" value="Richiesta" style="rhombus;whiteSpace=wrap;html=1;" parent="1" vertex="1">
          <mxGeometry x="375" y="293" width="80" height="61" as="geometry" />
        </mxCell>
        <mxCell id="BWnH7RUJTYlGTLS44q7B-34" value="(1, N)" style="endArrow=none;html=1;rounded=0;" parent="1" source="BWnH7RUJTYlGTLS44q7B-31" target="BWnH7RUJTYlGTLS44q7B-33" edge="1">
          <mxGeometry width="50" height="50" relative="1" as="geometry">
            <mxPoint x="605" y="271" as="sourcePoint" />
            <mxPoint x="499" y="321" as="targetPoint" />
          </mxGeometry>
        </mxCell>
        <mxCell id="BWnH7RUJTYlGTLS44q7B-63" value="&lt;font style=&quot;font-size: 18px;&quot;&gt;Registro di cassa&lt;br&gt;&lt;/font&gt;" style="rounded=0;whiteSpace=wrap;html=1;" parent="1" vertex="1">
          <mxGeometry x="655" y="401" width="120" height="60" as="geometry" />
        </mxCell>
        <mxCell id="BWnH7RUJTYlGTLS44q7B-64" value="ContabilitÃ " style="rhombus;whiteSpace=wrap;html=1;" parent="1" vertex="1">
          <mxGeometry x="525" y="400" width="80" height="61" as="geometry" />
        </mxCell>
        <mxCell id="BWnH7RUJTYlGTLS44q7B-65" value="(1, 1)" style="endArrow=none;html=1;rounded=0;" parent="1" source="BWnH7RUJTYlGTLS44q7B-64" target="NwfZpaaQpDAw_J0AIX61-10" edge="1">
          <mxGeometry width="50" height="50" relative="1" as="geometry">
            <mxPoint x="482" y="314" as="sourcePoint" />
            <mxPoint x="439" y="410" as="targetPoint" />
          </mxGeometry>
        </mxCell>
        <mxCell id="BWnH7RUJTYlGTLS44q7B-66" value="(1, N)" style="endArrow=none;html=1;rounded=0;" parent="1" source="BWnH7RUJTYlGTLS44q7B-63" target="BWnH7RUJTYlGTLS44q7B-64" edge="1">
          <mxGeometry width="50" height="50" relative="1" as="geometry">
            <mxPoint x="506" y="524.5" as="sourcePoint" />
            <mxPoint x="444" y="497.5" as="targetPoint" />
          </mxGeometry>
        </mxCell>
      </root>
    </mxGraphModel>
  </diagram>
</mxfile>
